<?xml version="1.0" standalone="no"?>
<!DOCTYPE svg PUBLIC "-//W3C//DTD SVG 20010904//EN"
 "http://www.w3.org/TR/2001/REC-SVG-20010904/DTD/svg10.dtd">
<svg version="1.0" xmlns="http://www.w3.org/2000/svg"
 width="512.000000pt" height="512.000000pt" viewBox="0 0 512.000000 512.000000"
 preserveAspectRatio="xMidYMid meet">
<metadata>
Created by potrace 1.11, written by Peter Selinger 2001-2013
</metadata>
<g transform="translate(0.000000,512.000000) scale(0.100000,-0.100000)"
fill="#000000" stroke="none">
<path d="M3315 4059 c-49 -39 -90 -74 -90 -77 0 -4 29 -50 64 -102 233 -349
367 -877 347 -1365 -16 -372 -83 -675 -211 -942 -50 -106 -128 -232 -182 -297
-13 -16 -20 -32 -16 -36 4 -4 48 -37 96 -75 74 -57 91 -66 101 -54 364 399
565 746 636 1099 67 335 49 696 -51 1000 -66 202 -214 462 -386 675 -89 111
-201 239 -211 242 -4 1 -47 -30 -97 -68z"/>
<path d="M1330 3401 c-50 -16 -89 -41 -128 -86 -97 -110 -97 -270 0 -380 53
-60 107 -87 189 -93 95 -7 159 17 224 82 81 81 106 191 68 302 -22 66 -101
145 -167 167 -51 17 -142 21 -186 8z"/>
<path d="M2100 2530 l0 -240 460 0 460 0 0 240 0 240 -460 0 -460 0 0 -240z"/>
<path d="M1293 2167 c-134 -50 -212 -204 -174 -344 24 -88 109 -168 214 -199
31 -10 57 -22 57 -26 0 -21 -45 -94 -82 -134 -23 -25 -72 -65 -110 -90 -65
-44 -68 -47 -55 -68 7 -11 30 -49 51 -84 l38 -63 56 32 c175 99 327 267 384
427 26 70 34 199 18 275 -26 129 -110 238 -207 271 -54 18 -144 20 -190 3z"/>
</g>
</svg>
